<?xml version="1.0" encoding="UTF-8" standalone="no"?>
<!-- Created with Inkscape (http://www.inkscape.org/) -->

<svg
   xmlns:dc="http://purl.org/dc/elements/1.1/"
   xmlns:cc="http://creativecommons.org/ns#"
   xmlns:rdf="http://www.w3.org/1999/02/22-rdf-syntax-ns#"
   xmlns:svg="http://www.w3.org/2000/svg"
   xmlns="http://www.w3.org/2000/svg"
   xmlns:sodipodi="http://sodipodi.sourceforge.net/DTD/sodipodi-0.dtd"
   xmlns:inkscape="http://www.inkscape.org/namespaces/inkscape"
   id="svg3077"
   version="1.1"
   inkscape:version="0.48.4 r9939"
   preserveAspectRatio="xMinYMin meet"
   viewBox="0 0 413 397"
   sodipodi:docname="bagel-hi.png">
  <metadata
     id="metadata3083">
    <rdf:RDF>
      <cc:Work
         rdf:about="">
        <dc:format>image/svg+xml</dc:format>
        <dc:type
           rdf:resource="http://purl.org/dc/dcmitype/StillImage" />
        <dc:title></dc:title>
      </cc:Work>
    </rdf:RDF>
  </metadata>
  <defs
     id="defs3081" />
  <sodipodi:namedview
     pagecolor="#000000"
     bordercolor="#666666"
     borderopacity="1"
     objecttolerance="10"
     gridtolerance="10"
     guidetolerance="10"
     inkscape:pageopacity="1"
     inkscape:pageshadow="2"
     inkscape:window-width="1366"
     inkscape:window-height="702"
     id="namedview3079"
     showgrid="false"
     fit-margin-top="0"
     fit-margin-left="0"
     fit-margin-right="0"
     fit-margin-bottom="0"
     inkscape:zoom="1.1177778"
     inkscape:cx="71.355128"
     inkscape:cy="197.7185"
     inkscape:window-x="0"
     inkscape:window-y="27"
     inkscape:window-maximized="1"
     inkscape:current-layer="svg3077" />
  <g
     id="g3087"
     transform="translate(-98.500411,-32.618364)">
    <path
       style="fill:#c99457"
       d="m 307,429.41319 c -1.375,-0.15793 -9.475,-0.78933 -18,-1.4031 -35.72615,-2.57217 -56.01645,-6.22203 -70.32372,-12.64995 -5.59695,-2.51458 -13.69387,-6.09697 -17.99315,-7.96086 -12.75302,-5.5289 -20.7061,-11.40674 -35.44751,-26.19801 -22.47123,-22.54724 -33.10211,-35.21668 -40.46201,-48.22095 -11.06387,-19.54884 -14.55045,-27.28111 -18.77379,-41.63502 -2.24052,-7.61492 -4.84456,-16.3203 -5.78675,-19.3453 -1.451656,-4.6607 -1.713007,-9.9254 -1.712659,-34.5 4.03e-4,-28.42624 0.05415,-29.19785 2.716349,-39 3.6574,-13.46645 9.72733,-31.15078 14.24437,-41.5 2.04045,-4.675 4.15344,-10.0018 4.69551,-11.83733 0.56767,-1.9222 2.14956,-4.00535 3.73063,-4.91275 1.50977,-0.86649 3.61527,-3.06115 4.67888,-4.87702 4.88081,-8.3328 46.42815,-51.257652 58.93385,-60.887808 10.78749,-8.307029 32.34748,-21.173544 39.76992,-23.733787 6.35339,-2.19149 25.68792,-8.302642 34.23008,-10.819251 1.65,-0.486107 6.825,-1.274414 11.5,-1.751793 4.675,-0.477379 13.37916,-1.924098 19.34257,-3.21493 l 10.84258,-2.346967 14.15742,2.270851 c 17.35668,2.784012 35.55033,6.820048 54.56957,12.105583 C 379.83882,49.197659 386.73848,51 387.24472,51 c 2.48406,0 29.60394,11.653622 36.92239,15.865841 25.42672,14.634645 46.92432,34.893219 63.28141,59.634159 12.85513,19.44405 15.16569,24.49195 20.21432,44.16242 l 4.5782,17.83758 -0.61501,20 c -0.73343,23.85133 -2.24296,33.9556 -6.8722,46 -1.90252,4.95 -5.12649,14.02902 -7.16437,20.1756 -2.03788,6.14658 -4.43181,11.77158 -5.31986,12.5 -3.3077,2.71316 -9.26961,13.14857 -9.27212,16.22944 -0.004,4.46766 -4.53898,20.73391 -7.63784,27.39355 -4.30887,9.26002 -12.00847,18.78945 -22.43387,27.76532 -5.37654,4.629 -10.79334,9.8833 -12.03733,11.67623 -9.03576,13.02302 -16.22017,18.89609 -38.88844,31.79027 -7.975,4.53635 -15.40018,9.0582 -16.5004,10.04857 -1.10022,0.99037 -4.25022,2.29747 -7,2.90466 -6.37835,1.40844 -31.05384,9.43839 -34.9996,11.38964 -5.50704,2.72334 -25.07054,4.35269 -36.5,3.03991 z m 9.27845,-175.79744 c 3.97185,-1.86134 8.91227,-3.9779 10.9787,-4.70348 5.06245,-1.77754 14.12985,-9.02884 17.32212,-13.85269 3.02361,-4.56898 4.33863,-12.69461 4.38801,-27.1138 0.0301,-8.80084 -0.19058,-9.90633 -2.79918,-14.01966 C 342.55942,188.23581 337.53685,184 334.39831,184 c -3.28712,0 -14.93619,5.96383 -25.37558,12.99121 -10.36037,6.9742 -11.889,9.43194 -16.63521,26.74644 -1.92411,7.01929 -4.14844,14.57739 -4.94295,16.79578 -3.23844,9.04217 -1.27688,12.82542 7.78808,15.02081 8.91384,2.15879 13.13175,1.77029 21.0458,-1.93849 z"
       id="path3091"
       inkscape:connector-curvature="0" />
    <path
       style="fill:#be7120"
       d="m 281.5,405.42781 c -3.3,-0.73358 -7.26853,-1.63833 -8.81895,-2.01055 -1.67373,-0.40183 -5.48332,0.0444 -9.37729,1.09849 -5.2917,1.43239 -8.68882,1.65336 -17.5893,1.14412 -10.62078,-0.60768 -11.25745,-0.7753 -17.1227,-4.50793 -7.89276,-5.02293 -24.65636,-13.91034 -29.39199,-15.58249 -5.32694,-1.88094 -21.29442,-11.7619 -29.1991,-18.06891 -4.54362,-3.62528 -7.5102,-6.92164 -9.00138,-10.00201 -2.49671,-5.15752 -6.56772,-9.55996 -12.94466,-13.99853 -5.72084,-3.9819 -11.11017,-11.32367 -15.0483,-20.5 -1.77029,-4.125 -4.74592,-9.09397 -6.61252,-11.04216 -1.8666,-1.94819 -3.39381,-4.217 -3.39381,-5.04181 0,-0.8248 -2.18282,-5.08083 -4.85072,-9.45784 -4.01591,-6.58859 -5.06142,-9.33498 -6.07508,-15.95819 -0.6734,-4.4 -2.32343,-12.05574 -3.66672,-17.01276 -2.17571,-8.02883 -2.46773,-11.31158 -2.67491,-30.06957 -0.24309,-22.00911 -0.13831,-22.70332 4.45851,-29.53991 1.0666,-1.58628 2.2348,-6.46005 2.95699,-12.33664 0.96818,-7.87828 1.75265,-10.55807 4.1504,-14.17802 1.62612,-2.45498 3.76513,-7.47849 4.75337,-11.16335 2.47716,-9.23666 9.43433,-24.87903 13.20939,-29.69975 1.7228,-2.2 5.24752,-6.25 7.8327,-9 2.58519,-2.75 6.88413,-7.62823 9.55321,-10.84051 12.85684,-15.47344 18.93421,-22.025871 23.68225,-25.533451 2.84514,-2.10183 5.83955,-4.624667 6.65423,-5.606306 0.81469,-0.981639 4.63916,-4.141631 8.49882,-7.022206 3.85966,-2.880575 8.33925,-6.645935 9.95465,-8.367468 2.5372,-2.703897 3.62642,-3.131389 8,-3.139828 C 218.42603,67.972887 231,60.02771 231,54.365164 c 0,-2.841454 1.97981,-3.82934 16.54319,-8.254717 6.76369,-2.055283 11.17198,-2.869475 13.5,-2.493392 2.00562,0.324 6.81527,-0.287109 11.45681,-1.455689 8.85065,-2.22829 19.41477,-2.285618 46.5,-0.252341 25.8964,1.944032 30.54387,2.814742 41.00903,7.683088 5.22996,2.432958 14.90496,5.778717 21.5,7.43502 6.59503,1.656302 17.84097,5.205482 24.99097,7.887066 7.15,2.681584 14.89606,5.102875 17.21347,5.380648 3.10751,0.372476 6.65103,2.232036 13.5,7.084497 12.19494,8.64005 14.0098,10.276794 17.32056,15.620656 1.53337,2.475 5.1752,7.32006 8.09294,10.76681 2.96177,3.49874 5.77373,8.00754 6.36619,10.20778 0.58365,2.16753 1.46247,4.18897 1.95293,4.49209 2.11052,1.30438 8.21342,13.98018 11.59021,24.07303 2.01144,6.012 5.0121,13.86251 6.66813,17.44559 2.04107,4.41618 3.44155,9.70649 4.34768,16.4234 1.43635,10.64729 3.10569,13.95011 5.88497,11.64352 2.37054,-1.96737 4.21424,-0.60818 4.89879,3.61142 0.3423,2.11 1.0576,5.86136 1.58956,8.33636 0.73377,3.41391 0.51079,7.27555 -0.92387,16 -1.04008,6.325 -2.4252,15.325 -3.07804,20 -1.49802,10.72738 -3.94154,15.8536 -7.93793,16.65288 -3.50479,0.70096 -4.33224,1.62859 -5.96113,6.68289 -0.6799,2.10967 -2.54003,5.32077 -4.13362,7.13577 -4.55806,5.19134 -5.89084,9.51095 -5.89084,19.09243 0,14.05145 -3.98455,23.72074 -15.02801,36.46836 -3.77605,4.35875 -6.96722,6.78019 -12.60979,9.56824 -7.53644,3.72383 -8.6805,4.89607 -13.56526,13.89943 -1.88126,3.46746 -18.17267,15.71452 -24.79694,18.64109 -2.475,1.09344 -6.57084,3.31315 -9.10187,4.93268 -5.02049,3.21248 -14.94014,6.85172 -27.34383,10.03168 -4.37014,1.12039 -9.24358,2.96124 -10.82988,4.09078 -2.27279,1.61837 -3.80213,1.9279 -7.21449,1.46019 -3.37218,-0.46221 -5.29054,-0.089 -8.67012,1.68662 -2.3869,1.25409 -8.08169,3.77736 -12.65511,5.60728 -7.50128,3.00142 -8.68736,3.21565 -12.11602,2.1884 -9.42676,-2.82432 -17.38589,-0.44294 -24.67046,7.38144 -5.71656,6.14017 -6.79557,6.37575 -17.89822,3.90765 z m 85.27099,-40.7642 c 3.87974,-2.73208 10.26773,-10.84866 14.76927,-18.76583 C 384.00817,341.55731 388.9195,338 392.44418,338 c 2.14684,0 9.46521,-5.13914 10.08092,-7.07907 0.30409,-0.95811 1.67431,-2.47679 3.04494,-3.37487 1.56366,-1.02454 2.42255,-2.4549 2.30548,-3.83946 -0.40222,-4.75715 0.0409,-5.58885 2.87448,-5.39486 2.32611,0.15924 2.79965,-0.24474 3.07212,-2.6208 0.17717,-1.54498 1.07717,-3.08407 2,-3.42019 0.92283,-0.33613 2.94991,-1.65955 4.50461,-2.94094 1.55469,-1.2814 4.02969,-2.33097 5.5,-2.33238 2.11445,-0.002 4.22972,-1.80622 10.11892,-8.63079 7.17781,-8.31784 7.4611,-8.84185 7.87524,-14.56716 0.31917,-4.41257 0.91142,-6.23987 2.30435,-7.10976 2.52393,-1.57623 2.35989,-3.09213 -0.50024,-4.62282 -1.85989,-0.99539 -2.85917,-1.01194 -4.60736,-0.0763 -2.87448,1.53838 -3.87041,0.49061 -4.81179,-5.06227 -0.6547,-3.86184 -1.10167,-4.46896 -3.49425,-4.74625 -1.71986,-0.19933 -4.40297,0.73347 -7.19105,2.5 -4.31841,2.73615 -4.44859,2.96866 -4.48404,8.00894 -0.0201,2.85504 -0.49294,5.47308 -1.0508,5.81785 -0.55786,0.34478 -1.96156,2.48367 -3.11934,4.7531 -1.60636,3.14873 -1.85102,4.533 -1.03277,5.84323 1.17151,1.87589 -0.22067,2.89484 -3.95523,2.89484 -3.02699,0 -9.9842,3.83407 -14.07448,7.75635 -3.65983,3.50951 -3.72217,3.52722 -6.35207,1.80403 -1.46079,-0.95714 -3.53474,-1.51045 -4.60879,-1.22958 -1.40557,0.36756 -2.21072,-0.16769 -2.87317,-1.91007 -0.5062,-1.3314 -1.269,-2.40967 -1.69511,-2.39614 -1.7473,0.0555 -12.65829,4.04883 -13.91721,5.09364 -1.01166,0.83961 -1.73011,0.81745 -2.81986,-0.087 -0.89962,-0.74662 -5.0362,-1.24024 -10.75,-1.28282 -7.24068,-0.0539 -10.48674,0.40172 -14.72808,2.06745 -2.99221,1.17515 -5.54314,2.0339 -5.66871,1.90832 -0.12558,-0.12558 -0.53366,-1.4449 -0.90686,-2.93183 -0.58125,-2.31587 -0.21034,-2.98823 2.58687,-4.68931 2.07387,-1.2612 4.24113,-1.79067 5.93937,-1.45103 2.22741,0.44549 3.29247,-0.18781 6.37777,-3.79229 2.80655,-3.27881 3.63213,-5.05781 3.40789,-7.34342 -0.24033,-2.44966 -0.80755,-3.0753 -3.01919,-3.33018 -3.48215,-0.4013 -15.05008,5.07458 -17.61879,8.34017 -1.22356,1.5555 -2.96209,2.47367 -4.68384,2.47367 -3.37492,0 -8.71761,3.19648 -10.89369,6.51761 -1.01874,1.55478 -2.56699,2.48239 -4.14331,2.48239 -2.95409,0 -9.4789,3.1405 -11.44384,5.50811 -1.05186,1.26741 -1.10844,2.07782 -0.24196,3.46528 1.56697,2.50912 0.65432,3.04089 -4.13106,2.407 -2.47108,-0.32732 -7.89368,0.2856 -13.54771,1.53131 -8.8904,1.95875 -9.53463,1.98009 -11.30854,0.37473 -1.44128,-1.30435 -2.27653,-1.44831 -3.57254,-0.61578 -1.26618,0.81337 -2.44574,0.69894 -4.69146,-0.45515 -6.06057,-3.11458 -20.98926,-1.27921 -26.22469,3.22411 -2.68421,2.30886 -2.70879,2.42392 -0.93624,4.38256 1.43672,1.58756 1.5928,2.43662 0.74063,4.0289 -0.59383,1.1096 -1.0797,2.91925 -1.0797,4.02145 0,1.56516 0.60221,1.96278 2.75,1.81574 2.86331,-0.19602 2.88417,-0.15248 3.1437,6.56174 0.0951,2.45908 0.47871,2.75 3.62662,2.75 l 3.52033,0 -2.00604,3.93215 c -1.10331,2.16268 -2.46246,4.21424 -3.02032,4.55902 C 242.45643,347.83594 242,349.6965 242,351.62574 242,356.03834 246.28985,362 249.46505,362 c 1.22522,0 3.53431,0.62392 5.13131,1.38649 1.597,0.76257 5.9501,1.67602 9.67355,2.02989 5.43749,0.51677 6.88019,0.35605 7.33018,-0.81661 0.30814,-0.80301 1.82989,-1.90261 3.38167,-2.44357 2.06458,-0.71971 3.01367,-1.8785 3.53814,-4.31987 1.46118,-6.80173 1.73949,-6.95529 8.48018,-4.67893 5.41247,1.82782 5.99992,2.29896 5.99992,4.81196 0,3.68557 1.19421,4.52321 9.88029,6.93025 6.24022,1.72925 8.10254,1.8685 12.46814,0.93224 2.8227,-0.60536 6.16944,-1.78029 7.4372,-2.61096 1.88712,-1.23649 2.99771,-1.30277 6.12571,-0.3656 2.10139,0.62959 5.65443,1.14471 7.89566,1.14471 2.24123,0 4.35308,0.45 4.693,1 0.33992,0.55 2.81492,1 5.5,1 2.68508,0 5.19199,0.50163 5.57092,1.11474 1.21046,1.95857 10.12257,0.42022 14.20007,-2.45113 z M 228.66777,358.4234 c 0.33275,-0.86714 1.69039,-1.98927 3.01698,-2.49364 2.703,-1.02768 5.35486,-6.41709 5.23917,-10.64764 -0.10797,-3.94838 -2.27047,-9.46735 -4.18207,-10.67316 -2.26207,-1.42688 -5.36183,1.55182 -6.18586,5.94426 -0.35313,1.88236 -1.50741,3.8856 -2.56506,4.45163 -1.05765,0.56604 -2.4203,2.87597 -3.0281,5.13319 -1.03471,3.84263 -0.92942,4.28739 1.65313,6.98299 3.08175,3.21666 5.1467,3.66104 6.05181,1.30237 z m -15.70295,-9.35766 C 213.53417,348.0019 214,346.00346 214,344.62476 c 0,-1.3787 0.45,-2.78484 1,-3.12476 0.55,-0.33992 1,-1.50261 1,-2.58377 0,-2.59053 -4.14787,-4.19071 -7.52985,-2.90488 -2.20191,0.83716 -2.65239,0.63951 -3.47525,-1.52475 C 204.47493,333.11897 203.59119,332 203.03102,332 201.52413,332 196,339.99933 196,342.18142 c 0,2.90668 3.03262,3.49652 5.06605,0.98534 2.44007,-3.01336 2.93395,-2.73726 2.93395,1.6402 0,3.22294 0.42187,3.97366 2.75,4.89362 4.06502,1.60629 5.07036,1.50359 6.21482,-0.63484 z M 192.77749,331.4433 C 195.44815,329.5727 195.83936,325 193.32874,325 190.82605,325 188,327.99907 188,330.65499 c 0,2.72117 1.6332,2.99065 4.77749,0.78831 z m 116.29649,-64.48104 c 2.19687,-1.12076 7.46644,-3.32218 11.71016,-4.89205 7.17457,-2.65407 10.9256,-4.34687 17.21586,-7.76933 8.67054,-4.71753 18.14174,-9.3017 19.2278,-9.30646 3.89966,-0.0171 9.42357,-2.63222 13.83394,-6.54925 3.9728,-3.52841 5.75528,-4.44517 8.6429,-4.44517 2.00083,0 4.39573,0.68585 5.322,1.52411 2.46301,2.22899 4.65289,0.87488 6.23546,-3.85569 1.08817,-3.25273 1.24397,-7.6832 0.70923,-20.16842 -0.61479,-14.3542 -0.97668,-16.72004 -3.51819,-23 -1.55809,-3.85 -4.54745,-9.34319 -6.64302,-12.20709 C 378.74263,172.10072 378,170.21532 378,166.61963 c 0,-3.40432 -0.64848,-5.23686 -2.72753,-7.70767 -2.17524,-2.58512 -2.74491,-4.30783 -2.81333,-8.50758 -0.10912,-6.69774 -4.31044,-13.91594 -9.9366,-17.07184 -2.17148,-1.21806 -4.709,-3.75525 -5.71301,-5.71227 -0.99347,-1.93648 -3.33079,-5.00574 -5.19403,-6.82057 l -3.38772,-3.2997 1.46462,-7 c 2.08218,-9.95154 1.30617,-14.196487 -3.38069,-18.493215 -3.54103,-3.246268 -3.78743,-3.832168 -3.46979,-8.250601 L 343.18385,79 339.8576,79 c -1.82944,0 -8.40144,-0.758658 -14.60444,-1.685906 -11.16913,-1.669603 -11.30466,-1.665861 -14.01568,0.386941 -1.96855,1.49061 -2.65673,2.806162 -2.45,4.68355 0.21286,1.933062 -0.61487,3.402975 -3.18894,5.663043 -1.91204,1.678788 -3.96268,4.525686 -4.55698,6.326441 -0.72841,2.207101 -2.21481,3.814992 -4.56105,4.933836 -2.02691,0.966565 -3.48315,2.397365 -3.48683,3.425915 -0.003,0.9714 -1.35348,2.53275 -3,3.46967 -1.64653,0.93692 -2.99368,2.38596 -2.99368,3.2201 0,1.12499 -0.96833,1.45977 -3.75,1.29651 -3.3569,-0.19703 -3.78151,0.0509 -4.05056,2.3655 -0.16725,1.43883 0.38715,3.15634 1.25,3.87244 1.86361,1.54666 2.04,3.99267 0.30056,4.16785 -0.6875,0.0692 -5.075,0.0533 -9.75,-0.0354 -8.16962,-0.15502 -16.56611,0.83444 -20.25,2.38629 -1.54583,0.65119 -1.75,0.0853 -1.75,-4.8505 l 0,-5.58771 4.75,-2.26928 c 4.14269,-1.97915 4.91257,-2.84463 6.02149,-6.76929 3.25216,-11.509933 3.68283,-12.326375 8.15634,-15.462685 6.46776,-4.534446 6.54781,-5.990665 0.28856,-5.24935 -6.27916,0.743675 -14.75944,6.418787 -15.69849,10.505638 -0.80705,3.512381 -3.90099,7.082727 -9.61741,11.098307 -3.07952,2.16325 -5.30114,4.78041 -6.72262,7.91954 -1.1677,2.5787 -3.03044,5.25175 -4.13942,5.94012 C 229.74423,120.17562 202.72314,130 201.1006,130 c -0.5845,0 -3.99625,1.44658 -7.58167,3.21463 -4.92672,2.42948 -6.51893,3.72614 -6.51893,5.30887 0,1.15183 -0.68715,2.96775 -1.527,4.03537 -1.50129,1.90845 -1.55385,1.90325 -3.12197,-0.30887 -2.27557,-3.21011 -5.64043,-2.78588 -9.92048,1.25073 l -3.71185,3.50072 4.39065,4.8935 c 6.39012,7.12195 12.9932,8.85965 17.30008,4.55276 1.21086,-1.21085 1.41346,-2.84885 0.92747,-7.4985 -0.73179,-7.00139 -0.002,-7.38136 5.57362,-2.90088 3.01624,2.42392 4.06615,4.18595 5.12556,8.60207 0.73278,3.05456 1.90039,5.77173 2.5947,6.03816 1.88583,0.72366 11.91518,-2.43655 13.39623,-4.22111 0.70876,-0.854 4.69814,-3.12801 8.86528,-5.05335 4.16714,-1.92534 7.94348,-4.15615 8.39186,-4.95736 1.06394,-1.90116 4.4639,-1.84218 8.21585,0.14251 1.65,0.87281 4.08682,1.79231 5.41515,2.04334 5.46813,1.03337 15.08485,9.54486 15.08485,13.35118 0,1.43079 -1.575,5.67696 -3.5,9.43593 -2.64217,5.15939 -3.50316,8.08886 -3.5129,11.95239 -0.0186,7.37411 -3.42198,17.20067 -8.02285,23.16425 -4.48558,5.81414 -4.82307,8.01037 -1.94845,12.67949 1.10869,1.80079 3.84628,9.06972 6.08355,16.15317 4.39502,13.9152 6.3209,16.81469 12.2572,18.45378 1.9866,0.54853 4.80476,1.93555 6.26258,3.08227 1.45782,1.14672 3.23753,2.08495 3.95491,2.08495 0.71738,0 3.36155,1.78052 5.87595,3.95671 2.51439,2.1762 6.02926,4.19487 7.81082,4.48595 11.55659,1.88814 15.35077,1.79614 19.81317,-0.4804 z m 82.60312,-3.56318 c 0.68449,-1.78375 -1.36912,-3.53606 -3.6771,-3.13761 -0.825,0.14243 -1.6438,1.26686 -1.81955,2.49875 -0.26073,1.82752 0.15919,2.23978 2.28138,2.23978 1.46233,0 2.86988,-0.70084 3.21527,-1.60092 z M 364.5,251.56964 c 0,-2.21874 -1.41416,-2.90768 -3.39572,-1.65431 -1.89078,1.19596 -0.57256,4.3215 1.6427,3.89488 0.96416,-0.18568 1.75302,-1.19394 1.75302,-2.24057 z M 235.8,201.8 c 1.94004,-1.94004 1.39801,-2.8 -1.76482,-2.8 -1.94136,0 -3.3343,0.6904 -4.03518,2 -0.95338,1.78141 -0.76049,2 1.76482,2 1.55935,0 3.37518,-0.54 4.03518,-1.2 z M 193,195.78571 c 0,-2.8913 -0.15442,-3.05986 -1.53674,-1.67754 -0.86939,0.86939 -1.25719,2.26525 -0.89302,3.21429 1.06097,2.76482 2.42976,1.89911 2.42976,-1.53675 z"
       id="path3089"
       inkscape:connector-curvature="0" />
  </g>
</svg>
